Coordinates
version=1
nRows=11
nColumns=63
inDegrees=yes

Units are S.I. units (second, meters, Newtons, ...)
If the header above contains a line with 'inDegrees', this indicates whether rotational values are in degrees (yes) or radians (no).

endheader
time	pelvis_tilt	pelvis_list	pelvis_rotation	pelvis_tx	pelvis_ty	pelvis_tz	hip_flexion_r	hip_adduction_r	hip_rotation_r	knee_angle_r	knee_angle_r_beta	ankle_angle_r	subtalar_angle_r	mtp_angle_r	hip_flexion_l	hip_adduction_l	hip_rotation_l	knee_angle_l	knee_angle_l_beta	ankle_angle_l	subtalar_angle_l	mtp_angle_l	L5_S1_Flex_Ext	L5_S1_Lat_Bending	L5_S1_axial_rotation	L4_L5_Flex_Ext	L4_L5_Lat_Bending	L4_L5_axial_rotation	L3_L4_Flex_Ext	L3_L4_Lat_Bending	L3_L4_axial_rotation	L2_L3_Flex_Ext	L2_L3_Lat_Bending	L2_L3_axial_rotation	L1_L2_Flex_Ext	L1_L2_Lat_Bending	L1_L2_axial_rotation	L1_T12_Flex_Ext	L1_T12_Lat_Bending	L1_T12_axial_rotation	Abs_r3	Abs_r2	Abs_r1	Abs_t1	Abs_t2	neck_flexion	neck_bending	neck_rotation	arm_flex_r	arm_add_r	arm_rot_r	elbow_flex_r	pro_sup_r	wrist_flex_r	wrist_dev_r	arm_flex_l	arm_add_l	arm_rot_l	elbow_flex_l	pro_sup_l	wrist_flex_l	wrist_dev_l
      0.03333333	      4.19463469	      0.33399850	    171.31713073	      2.45835932	      0.89107345	      0.59987227	     10.20563445	      4.64976068	     10.16605890	     15.38240320	      0.26847358	     14.36583074	    -18.55095619	      0.00000000	      9.36362554	     -2.00011499	    -11.46921905	     18.03863723	      0.31483361	     16.06084266	    -17.78609273	      0.00000000	      0.00074828	     -0.07883983	      0.82202168	      0.00138964	     -0.10485697	      0.87339804	      0.00122935	     -0.19169116	      0.87339804	      0.00085521	     -0.19169116	      0.71926897	      0.00069486	     -0.16077018	      0.66789262	      0.00042757	     -0.12212289	      0.61651626	      0.00534491	     -0.89185190	      4.57183800	      0.00000000	      0.00000000	     -0.00000000	      0.00000000	      0.00000000	     -5.29969946	     -2.33264823	     -4.15315349	     26.59986767	     37.34926523	      0.00000000	      5.57295044	     -1.29922147	    -13.68737173	     46.35622893	     17.34734613	     47.77658593	      0.00000000	      5.57295044
      0.06666667	      4.30388962	     -0.57415618	    172.41990341	      2.45635655	      0.89139893	      0.60184462	     11.43499702	      3.56327953	      7.97341513	     17.85363900	      0.31160478	     16.85071380	    -17.97848802	      0.00000000	      9.73230573	     -0.60389924	     -9.40073219	     17.57540043	      0.30674860	     15.97009922	    -17.24164518	      0.00000000	      0.00068939	     -0.17368449	      0.36764382	      0.00128027	     -0.23100037	      0.39062155	      0.00113261	     -0.42229647	      0.39062155	      0.00078791	     -0.42229647	      0.32168834	      0.00064017	     -0.35417741	      0.29871060	      0.00039392	     -0.26903728	      0.27573286	      0.00492427	     -1.96475370	      2.04472461	      0.00000000	      0.00000000	     -0.00000000	      0.00000000	      0.00000000	     -3.02655620	     -4.98961510	      8.99659844	     23.55763205	     40.99837083	      0.00000000	      5.27559356	     -3.70210657	    -12.99596478	     35.48151675	     19.06861657	     44.69769466	      0.00000000	      5.27559356
      0.10000000	      4.38560851	     -1.25914123	    173.33929786	      2.45451252	      0.89170050	      0.60352597	     12.25630452	      2.59566175	      5.82603834	     19.61651919	      0.34237285	     18.86008222	    -16.88819172	      0.00000000	      9.89289390	      0.51168175	     -7.53017446	     17.01018834	      0.29688379	     15.94658330	    -16.77396553	      0.00000000	     -0.00017359	     -0.24257106	     -0.00184378	     -0.00032237	     -0.32261951	     -0.00195901	     -0.00028519	     -0.58978728	     -0.00195901	     -0.00019839	     -0.58978728	     -0.00161331	     -0.00016119	     -0.49465091	     -0.00149807	     -0.00009919	     -0.37574257	     -0.00138283	     -0.00123993	     -2.74401236	     -0.01025454	      0.00000000	      0.00000000	     -0.00000000	      0.00000000	      0.00000000	     -0.37815202	     -7.67740230	     25.51207160	     21.18439061	     46.42074887	      0.00000000	      5.19798915	     -5.36477851	    -12.35176378	     28.78310478	     20.32283159	     43.53636658	      0.00000000	      5.19798915
      0.13333333	      4.45799100	     -1.70721291	    174.02759422	      2.45308155	      0.89194574	      0.60473378	     12.56763523	      1.87859113	      4.19292979	     20.36254793	      0.35539351	     20.21940267	    -15.63181083	      0.00000000	      9.99098506	      1.27035663	     -6.00211518	     16.57497597	      0.28928790	     15.93435121	    -16.48198845	      0.00000000	      0.00050476	     -0.28690700	     -0.26117703	      0.00093740	     -0.38158631	     -0.27750060	      0.00082928	     -0.69758569	     -0.27750060	      0.00057689	     -0.69758569	     -0.22852990	      0.00046872	     -0.58506076	     -0.21220634	      0.00028842	     -0.44441895	     -0.19588277	      0.00360547	     -3.24554940	     -1.45258830	      0.00000000	      0.00000000	     -0.00000000	      0.00000000	      0.00000000	      2.03360123	     -9.71532267	     40.54532071	     20.22449218	     51.54750494	      0.00000000	      5.14087505	     -6.69535538	    -11.50772619	     22.05634947	     21.39339938	     43.04172963	      0.00000000	      5.14087505
      0.16666667	      4.52723981	     -1.85220006	    173.88909023	      2.45231851	      0.89220739	      0.60482471	     12.56097780	      1.79095187	      4.21465790	     20.31780748	      0.35461264	     20.36382141	    -15.68187761	      0.00000000	     10.14630706	      1.45726475	     -5.80583712	     16.51054620	      0.28816339	     15.96771317	    -16.36501877	      0.00000000	     -0.00082165	     -0.29374425	     -0.28443015	     -0.00152589	     -0.39067985	     -0.30220704	     -0.00134989	     -0.71420976	     -0.30220704	     -0.00093906	     -0.71420976	     -0.24887639	     -0.00076298	     -0.59900326	     -0.23109950	     -0.00046949	     -0.45500984	     -0.21332262	     -0.00586896	     -3.32289365	     -1.58191519	      0.00000000	      0.00000000	     -0.00000000	      0.00000000	      0.00000000	      2.31632430	    -10.08543809	     40.55681660	     20.28420647	     51.56339394	      0.00000000	      5.14063884	     -6.82897295	    -11.34694625	     22.06934830	     21.40384363	     43.04936662	      0.00000000	      5.14063884
      0.20000000	      4.51165036	     -1.95213918	    174.79699601	      2.45135740	      0.89248925	      0.60562424	     11.95743933	      1.63303932	      4.15492717	     19.42365727	      0.33900677	     20.36067194	    -16.25493117	      0.00000000	     10.11260982	      1.87294104	     -3.47582224	     16.22013883	      0.28309483	     15.63792264	    -17.35378166	      0.00000000	      0.00077068	     -0.31594620	     -0.54017340	      0.00143123	     -0.42020845	     -0.57393423	      0.00126615	     -0.76819159	     -0.57393423	      0.00088081	     -0.76819159	     -0.47265172	      0.00071565	     -0.64427749	     -0.43889088	      0.00044037	     -0.48940066	     -0.40513005	      0.00550488	     -3.57404660	     -3.00428238	      0.00000000	      0.00000000	     -0.00000000	      0.00000000	      0.00000000	      4.99941034	    -11.71210025	     57.77865552	     20.32502360	     56.86089325	      0.00000000	      5.09893453	     -7.76214940	    -10.62274247	     16.34947214	     22.10981662	     43.24900003	      0.00000000	      5.09893453
      0.23333333	      4.50854050	     -1.82675535	    175.00970942	      2.45078998	      0.89276149	      0.60538739	     11.31196140	      1.86151059	      4.67200351	     18.27758227	      0.31900399	     19.87205381	    -16.98093606	      0.00000000	     10.26531882	      1.81515628	     -2.48966343	     16.48931705	      0.28779287	     15.57230601	    -17.99275331	      0.00000000	      0.00064558	     -0.30923722	     -0.61186208	      0.00119890	     -0.41128550	     -0.65010346	      0.00106062	     -0.75187937	     -0.65010346	      0.00073783	     -0.75187937	     -0.53537932	      0.00059948	     -0.63059653	     -0.49713794	      0.00036888	     -0.47900845	     -0.45889656	      0.00461130	     -3.49815323	     -3.40299334	      0.00000000	      0.00000000	     -0.00000000	      0.00000000	      0.00000000	      5.06297798	    -11.70285281	     57.97345146	     20.30420234	     56.02539152	      0.00000000	      5.07774361	     -7.90255388	    -10.49650737	     15.50172897	     22.10152546	     43.89305938	      0.00000000	      5.07774361
      0.26666667	      4.48826255	     -1.67419356	    174.99789394	      2.45042479	      0.89293293	      0.60478310	     10.76522546	      2.11452967	      5.16408621	     17.29072216	      0.30178003	     19.48507624	    -17.40791099	      0.00000000	     10.44418340	      1.64647448	     -1.99058969	     16.95188957	      0.29586629	     15.59070144	    -18.41513477	      0.00000000	      0.00079916	     -0.30042332	     -0.62829102	      0.00148412	     -0.39956301	     -0.66755921	      0.00131294	     -0.73044926	     -0.66755921	      0.00091336	     -0.73044926	     -0.54975464	      0.00074210	     -0.61262323	     -0.51048646	      0.00045664	     -0.46535572	     -0.47121827	      0.00570830	     -3.39844867	     -3.49436618	      0.00000000	      0.00000000	     -0.00000000	      0.00000000	      0.00000000	      4.33113048	    -11.09301296	     53.46275518	     19.99150717	     53.51760902	      0.00000000	      5.04658019	     -7.98819141	    -10.35602403	     14.22917177	     22.06584328	     45.76234077	      0.00000000	      5.04658019
      0.30000000	      4.46867516	     -1.40862833	    175.09140528	      2.45018975	      0.89288672	      0.60451618	     10.34444700	      2.36635622	      4.93121127	     16.55649248	      0.28896531	     19.42312833	    -17.09456712	      0.00000000	     10.76515327	      1.36620548	     -1.46414663	     17.79544312	      0.31058907	     15.73784123	    -18.75368572	      0.00000000	      0.00071925	     -0.27762143	     -0.68060550	      0.00133572	     -0.36923650	     -0.72314335	      0.00118166	     -0.67500874	     -0.72314335	      0.00082203	     -0.67500874	     -0.59552981	      0.00066790	     -0.56612562	     -0.55299197	      0.00041098	     -0.43003559	     -0.51045413	      0.00513754	     -3.14050912	     -3.78532362	      0.00000000	      0.00000000	     -0.00000000	      0.00000000	      0.00000000	      4.15363393	    -10.40349953	     51.81055700	     19.00073981	     52.36159316	      0.00000000	      5.03895656	     -8.02800400	    -10.25743801	     13.91375275	     21.94096450	     45.81605135	      0.00000000	      5.03895656
      0.33333333	      4.51927800	     -1.16081025	    174.63865300	      2.44978678	      0.89244115	      0.60381980	     10.04521236	      2.78542106	      5.74640299	     15.91590628	      0.27778497	     18.90269937	    -17.87811876	      0.00000000	     10.95112939	      0.97792731	     -1.92981884	     18.39331174	      0.32102385	     16.03503997	    -18.67542021	      0.00000000	      0.00087936	     -0.25225863	     -0.60600172	      0.00163306	     -0.33550397	     -0.64387682	      0.00144470	     -0.61334162	     -0.64387682	      0.00100502	     -0.61334162	     -0.53025150	      0.00081657	     -0.51440579	     -0.49237640	      0.00050247	     -0.39074861	     -0.45450129	      0.00628117	     -2.85360003	     -3.37039975	      0.00000000	      0.00000000	     -0.00000000	      0.00000000	      0.00000000	      1.02639952	     -8.23324104	     30.73397591	     20.32084913	     45.37078298	      0.00000000	      5.02220291	     -8.06652487	    -10.12708331	     13.33636589	     21.94247015	     47.63792491	      0.00000000	      5.02220291
      0.36666667	      4.57385885	     -0.74126927	    174.72147013	      2.44926759	      0.89183478	      0.60412687	      9.47609377	      3.20800987	      5.42463834	     14.81254749	      0.25852772	     18.47711888	    -17.91806430	      0.00000000	     11.18182638	      0.53446935	     -1.88285393	     19.08526497	      0.33310071	     16.24815346	    -18.64704321	      0.00000000	      0.00028299	     -0.20730758	     -0.68264359	      0.00052553	     -0.27571909	     -0.72530882	      0.00046492	     -0.50404766	     -0.72530882	      0.00032342	     -0.50404766	     -0.59731315	      0.00026278	     -0.42274162	     -0.55464792	      0.00016170	     -0.32111945	     -0.51198270	      0.00202134	     -2.34510485	     -3.79665888	      0.00000000	      0.00000000	     -0.00000000	      0.00000000	      0.00000000	      0.87861828	     -7.90200953	     29.35587100	     20.09183378	     44.96666764	      0.00000000	      5.02164090	     -8.36191321	     -9.96892931	     13.18652245	     22.18075940	     47.66578892	      0.00000000	      5.02164090
